<svg width="32" height="32" viewBox="0 0 32 32" fill="none" xmlns="http://www.w3.org/2000/svg">
<path d="M29.8479 16.0172C29.8479 13.1231 28.6623 10.3475 26.552 8.30109C24.4416 6.25466 21.5793 5.10498 18.5947 5.10498V26.9294C21.5793 26.9294 24.4416 25.7797 26.552 23.7333C28.6623 21.6869 29.8479 18.9113 29.8479 16.0172V16.0172Z" fill="#3769B2"/>
<path d="M7.34191 16.017C7.34191 13.1229 8.52751 10.3474 10.6379 8.30093C12.7483 6.25449 15.6106 5.10482 18.5951 5.10482V0.0725098C14.2342 0.0725098 10.0519 1.75237 6.96832 4.74255C3.8847 7.73273 2.15234 11.7883 2.15234 16.017C2.15234 20.2458 3.8847 24.3013 6.96832 27.2915C10.0519 30.2817 14.2342 31.9615 18.5951 31.9615V26.9292C15.6106 26.9292 12.7483 25.7796 10.6379 23.7331C8.52751 21.6867 7.34191 18.9111 7.34191 16.017V16.017Z" fill="#588DD9"/>
<path d="M7.3418 16.0172C7.3418 18.9113 8.5274 21.6869 10.6378 23.7333C12.7482 25.7797 15.6105 26.9294 18.595 26.9294V5.10498C15.6105 5.10498 12.7482 6.25466 10.6378 8.30109C8.5274 10.3475 7.3418 13.1231 7.3418 16.0172V16.0172Z" fill="#0C3573"/>
</svg>
