<svg width="38" height="38" viewBox="0 0 38 38" fill="none" xmlns="http://www.w3.org/2000/svg">
<path fill-rule="evenodd" clip-rule="evenodd" d="M22.4285 23.1394C22.4284 23.0281 22.4018 22.9184 22.3507 22.8195C22.2997 22.7206 22.2257 22.6353 22.135 22.5708C22.0443 22.5063 21.9395 22.4644 21.8293 22.4486C21.7192 22.4328 21.6068 22.4435 21.5016 22.48C21.1028 22.6182 20.7279 22.7668 20.3816 22.9268C20.2945 22.9669 20.1987 22.9844 20.103 22.9777C20.0073 22.9711 19.9149 22.9404 19.8342 22.8886C19.7534 22.8368 19.6871 22.7655 19.6411 22.6813C19.5952 22.5971 19.5712 22.5027 19.5714 22.4068V9.86738C19.5714 8.99767 23.3131 7.19767 30.1736 7.00338C30.2433 7.00657 30.3101 7.03178 30.3645 7.07538C30.3842 7.09319 30.4001 7.11486 30.4111 7.13903C30.4221 7.16321 30.428 7.18939 30.4285 7.21595V20.9165C30.4186 20.9785 30.3857 21.0345 30.3363 21.0733C30.287 21.1121 30.2248 21.1308 30.1622 21.1257L29.5668 21.1462C29.3372 21.1563 29.1203 21.2546 28.9614 21.4207C28.8026 21.5868 28.714 21.8078 28.7142 22.0377C28.7143 22.149 28.7368 22.2591 28.7806 22.3615C28.8243 22.4638 28.8883 22.5563 28.9687 22.6333C29.0491 22.7103 29.1442 22.7702 29.2484 22.8094C29.3526 22.8487 29.4636 22.8664 29.5748 22.8617C29.7828 22.8525 29.9942 22.8445 30.2091 22.8388C30.7192 22.8364 31.208 22.6335 31.5698 22.2738C31.9316 21.9142 32.1374 21.4266 32.1428 20.9165V7.21595C32.1431 6.95977 32.0915 6.70618 31.9911 6.47048C31.8908 6.23478 31.7437 6.02185 31.5588 5.84453C31.37 5.65917 31.1455 5.51414 30.899 5.41827C30.6524 5.32239 30.3889 5.27766 30.1245 5.28681C25.7736 5.4091 21.1782 6.25824 19.0582 7.8571C18.9593 7.93128 18.839 7.97138 18.7154 7.97138C18.5917 7.97138 18.4714 7.93128 18.3725 7.8571C16.2491 6.26167 11.6548 5.41253 7.30393 5.28681C7.03939 5.2781 6.77583 5.32324 6.52928 5.41951C6.28272 5.51578 6.0583 5.66115 5.86964 5.84681C5.68503 6.02387 5.53812 6.23643 5.43776 6.47172C5.3374 6.707 5.28566 6.96016 5.28564 7.21595V20.9165C5.29104 21.4266 5.49686 21.9142 5.85866 22.2738C6.22046 22.6335 6.70921 22.8364 7.21936 22.8388C14.1028 23.0285 17.8571 24.8297 17.8571 25.704C17.8571 25.9313 17.9474 26.1493 18.1081 26.31C18.2689 26.4708 18.4869 26.5611 18.7142 26.5611C18.9415 26.5611 19.1596 26.4708 19.3203 26.31C19.4811 26.1493 19.5714 25.9313 19.5714 25.704C19.5714 25.3222 20.2879 24.7634 21.6685 24.24C21.8917 24.155 22.0839 24.0043 22.2196 23.8078C22.3553 23.6113 22.4281 23.3782 22.4285 23.1394ZM17.8571 22.4068C17.8572 22.5027 17.8332 22.5971 17.7873 22.6813C17.7414 22.7655 17.675 22.8368 17.5943 22.8886C17.5136 22.9404 17.4211 22.9711 17.3254 22.9777C17.2297 22.9844 17.1339 22.9669 17.0468 22.9268C13.9242 21.7334 10.6091 21.123 7.26622 21.1257C7.20365 21.1308 7.14146 21.1121 7.09208 21.0733C7.04271 21.0345 7.0098 20.9785 6.99993 20.9165V7.21595C7.00042 7.18939 7.00635 7.16321 7.01736 7.13903C7.02837 7.11486 7.04422 7.09319 7.06393 7.07538C7.11301 7.02823 7.17873 7.00235 7.24679 7.00338H7.25479C14.1154 7.19767 17.8571 8.99767 17.8571 9.86738V22.4068ZM21.7715 10.3063C23.6463 9.63501 25.5926 9.18324 27.5715 8.95997C27.6835 8.94894 27.7966 8.96008 27.9043 8.99277C28.0121 9.02545 28.1123 9.07903 28.1993 9.15045C28.2863 9.22187 28.3584 9.30974 28.4115 9.40902C28.4646 9.50831 28.4976 9.61708 28.5086 9.72911C28.5196 9.84115 28.5085 9.95426 28.4758 10.062C28.4431 10.1697 28.3895 10.27 28.3181 10.357C28.2467 10.444 28.1588 10.5161 28.0595 10.5692C27.9603 10.6222 27.8515 10.6552 27.7395 10.6663C25.8912 10.8775 24.0735 11.3013 22.3223 11.9291C22.215 11.9684 22.1009 11.9859 21.9868 11.9804C21.8726 11.975 21.7607 11.9468 21.6576 11.8974C21.5545 11.8481 21.4623 11.7787 21.3865 11.6932C21.3106 11.6077 21.2526 11.508 21.2159 11.3998C21.1792 11.2915 21.1644 11.1771 21.1726 11.0631C21.1807 10.9491 21.2116 10.8379 21.2634 10.736C21.3151 10.6341 21.3868 10.5436 21.474 10.4698C21.5613 10.396 21.6624 10.3404 21.7715 10.3063ZM9.85703 9.15081C11.8307 9.29713 13.779 9.68517 15.6582 10.3062H15.657C15.7661 10.3404 15.8672 10.396 15.9545 10.4698C16.0417 10.5436 16.1133 10.6341 16.1651 10.736C16.2169 10.8379 16.2477 10.9491 16.2559 11.0631C16.264 11.177 16.2493 11.2915 16.2126 11.3997C16.1759 11.5079 16.1179 11.6077 16.042 11.6932C15.9661 11.7787 15.874 11.8481 15.7709 11.8974C15.6678 11.9467 15.5559 11.975 15.4417 11.9804C15.3276 11.9858 15.2135 11.9684 15.1062 11.9291C13.3516 11.3497 11.5321 10.9896 9.68903 10.8571C9.57708 10.8462 9.46838 10.8134 9.36915 10.7604C9.26992 10.7075 9.18212 10.6354 9.11077 10.5485C9.03943 10.4615 8.98594 10.3614 8.95338 10.2537C8.92082 10.146 8.90983 10.033 8.92103 9.92109C8.94558 9.69591 9.05724 9.48926 9.23215 9.34532C9.40706 9.20138 9.63133 9.13157 9.85703 9.15081ZM9.85694 13.3016C11.8306 13.4475 13.7789 13.8352 15.6581 14.4559H15.6569C15.766 14.4901 15.8671 14.5457 15.9544 14.6195C16.0416 14.6933 16.1132 14.7838 16.165 14.8857C16.2168 14.9875 16.2476 15.0988 16.2558 15.2127C16.2639 15.3267 16.2492 15.4412 16.2125 15.5494C16.1758 15.6576 16.1178 15.7574 16.0419 15.8429C15.966 15.9283 15.8739 15.9978 15.7708 16.0471C15.6677 16.0964 15.5558 16.1246 15.4416 16.1301C15.3275 16.1355 15.2134 16.1181 15.1061 16.0788C13.3515 15.4997 11.5319 15.14 9.68894 15.0079C9.46267 14.9856 9.25452 14.8744 9.11028 14.6986C8.96603 14.5229 8.89752 14.297 8.91979 14.0708C8.94207 13.8445 9.05332 13.6364 9.22907 13.4921C9.40482 13.3479 9.63067 13.2794 9.85694 13.3016ZM15.6581 18.6068C13.7788 17.9863 11.8306 17.5982 9.85693 17.4514C9.63111 17.4315 9.40651 17.5011 9.23147 17.6452C9.05643 17.7892 8.94492 17.9962 8.92093 18.2216C8.89861 18.4477 8.96696 18.6734 9.11097 18.8492C9.25498 19.0249 9.46286 19.1363 9.68893 19.1588C11.532 19.2904 13.3516 19.6501 15.1061 20.2296C15.2134 20.2689 15.3275 20.2864 15.4416 20.2809C15.5558 20.2755 15.6677 20.2473 15.7708 20.198C15.8739 20.1487 15.966 20.0792 16.0419 19.9937C16.1178 19.9083 16.1758 19.8085 16.2125 19.7003C16.2492 19.5921 16.2639 19.4776 16.2558 19.3636C16.2476 19.2496 16.2168 19.1384 16.165 19.0365C16.1132 18.9346 16.0416 18.8441 15.9544 18.7703C15.8671 18.6965 15.766 18.6409 15.6569 18.6068H15.6581ZM27.5715 13.1097C25.5927 13.3336 23.6465 13.7854 21.7715 14.456C21.6624 14.4901 21.5613 14.5457 21.474 14.6195C21.3868 14.6933 21.3151 14.7838 21.2634 14.8857C21.2116 14.9876 21.1807 15.0988 21.1726 15.2128C21.1644 15.3268 21.1792 15.4412 21.2159 15.5494C21.2526 15.6577 21.3106 15.7574 21.3865 15.8429C21.4623 15.9284 21.5545 15.9978 21.6576 16.0471C21.7607 16.0965 21.8726 16.1247 21.9868 16.1301C22.1009 16.1356 22.215 16.1181 22.3223 16.0788C24.0737 15.4517 25.8913 15.0279 27.7395 14.816C27.9657 14.7937 28.1739 14.6824 28.3181 14.5067C28.4624 14.3309 28.5309 14.1051 28.5086 13.8788C28.4863 13.6525 28.3751 13.4444 28.1993 13.3001C28.0236 13.1559 27.7977 13.0874 27.5715 13.1097ZM21.7715 18.6068C23.6462 17.9352 25.5925 17.4834 27.5715 17.2605V17.2662C27.7977 17.244 28.0236 17.3125 28.1993 17.4567C28.3751 17.601 28.4863 17.8091 28.5086 18.0354C28.5309 18.2617 28.4624 18.4875 28.3181 18.6633C28.1739 18.839 27.9657 18.9503 27.7395 18.9725C25.8914 19.1818 24.0737 19.6037 22.3223 20.2297C22.215 20.269 22.1009 20.2864 21.9868 20.281C21.8726 20.2755 21.7607 20.2473 21.6576 20.198C21.5545 20.1487 21.4623 20.0792 21.3865 19.9938C21.3106 19.9083 21.2526 19.8085 21.2159 19.7003C21.1792 19.5921 21.1644 19.4776 21.1726 19.3636C21.1807 19.2497 21.2116 19.1384 21.2634 19.0366C21.3151 18.9347 21.3868 18.8442 21.474 18.7704C21.5613 18.6966 21.6624 18.641 21.7715 18.6068ZM27.5714 28.1439H29.5748C30.4246 28.1851 31.2256 28.5531 31.8106 29.1709C32.3956 29.7886 32.7194 30.6085 32.7142 31.4593V32.145C32.7142 32.2966 32.654 32.4419 32.5469 32.5491C32.4397 32.6563 32.2944 32.7165 32.1428 32.7165H22.2274C22.1232 32.7166 22.0209 32.6882 21.9317 32.6345C21.8425 32.5807 21.7696 32.5035 21.7211 32.4113L20.2811 29.6742C20.2044 29.5345 20.1563 29.3809 20.1396 29.2225C20.1229 29.064 20.138 28.9038 20.1839 28.7512C20.2297 28.5986 20.3056 28.4566 20.4069 28.3336C20.5082 28.2107 20.6331 28.1091 20.7741 28.0349C20.9151 27.9606 21.0695 27.9152 21.2282 27.9013C21.387 27.8874 21.5469 27.9052 21.6987 27.9538C21.8504 28.0024 21.991 28.0807 22.1122 28.1841C22.2334 28.2876 22.3328 28.4142 22.4045 28.5565L23.624 30.2708C23.659 30.3203 23.709 30.3573 23.7665 30.3766C23.824 30.3958 23.8862 30.3962 23.944 30.3778C24.0018 30.3593 24.0522 30.3229 24.088 30.2739C24.1237 30.2249 24.1429 30.1657 24.1428 30.105V22.7153C24.1428 22.3365 24.2933 21.9731 24.5612 21.7052C24.8291 21.4373 25.1925 21.2868 25.5714 21.2868C25.9503 21.2868 26.3136 21.4373 26.5815 21.7052C26.8494 21.9731 27 22.3365 27 22.7153V27.5725C27 27.724 27.0602 27.8694 27.1673 27.9765C27.2745 28.0837 27.4198 28.1439 27.5714 28.1439Z" fill="currentColor"/>
</svg>
