<svg width="24" height="24" viewBox="0 0 24 24" fill="none" xmlns="http://www.w3.org/2000/svg">
<g clip-path="url(#clip0_1428_3859)">
<path d="M1.28626 4.71476C0.57564 4.71476 0 4.13915 0 3.42851C0 2.71883 0.575616 2.14319 1.28626 2.14319H22.7147C23.4243 2.14319 24.0009 2.7188 24.0009 3.42944C24.0009 4.13912 23.4253 4.7157 22.7147 4.7157L1.28626 4.71476Z" fill="currentColor"/>
<path d="M1.28626 13.2861C0.57564 13.2861 0 12.7105 0 11.9999C0 11.2902 0.575616 10.7136 1.28626 10.7136H22.7147C23.4243 10.7136 24 11.2892 24 11.9999C24 12.7105 23.4244 13.2861 22.7147 13.2861L1.28626 13.2852V13.2861Z" fill="currentColor"/>
<path d="M1.28626 21.8567C0.57564 21.8567 0 21.2811 0 20.5705C0 19.8608 0.575616 19.2852 1.28626 19.2852H22.7137C23.4243 19.2852 24 19.8608 24 20.5705C24 21.2811 23.4243 21.8567 22.7137 21.8567H1.28626Z" fill="currentColor"/>
</g>
<defs>
<clipPath id="clip0_1428_3859">
<rect width="24" height="24" fill="currentColor"/>
</clipPath>
</defs>
</svg>
