<svg width="38" height="38" viewBox="0 0 38 38" fill="none" xmlns="http://www.w3.org/2000/svg">
<path d="M19.6229 21.9243C20.4113 21.9243 21.1998 21.8079 21.9597 21.6025L28.5022 19.6457V24.1151C28.5022 24.9332 27.9762 25.6338 27.1877 25.8677L24.3249 26.7143C21.1699 27.6488 17.8405 27.6488 14.6856 26.7143L11.8227 25.8677C11.0343 25.6338 10.5083 24.9332 10.5083 24.1151L10.5094 19.5875L17.2859 21.6026C18.0458 21.8365 18.8343 21.9243 19.6227 21.9243L19.6229 21.9243Z" fill="currentColor"/>
<path d="M6.33195 14.68L17.87 11.2627C19.0087 10.9124 20.2364 10.9124 21.405 11.2627L32.9132 14.68C33.7016 14.9139 33.7016 16.0527 32.9132 16.2866L21.3752 19.7039C20.2364 20.0542 19.0087 20.0542 17.8402 19.7039L7.96684 16.7829V19.3821C8.17109 19.4985 8.31713 19.7039 8.31713 19.9366V20.6372C8.31713 20.8996 8.17108 21.1335 7.93716 21.2214L8.55105 22.6522C8.6389 22.8565 8.52138 23.0607 8.28861 23.0904L7.64622 23.1486H7.26625L6.62386 23.0904C6.41962 23.0607 6.30209 22.8565 6.36143 22.6522L6.97531 21.2214C6.7414 21.105 6.59534 20.8996 6.59534 20.6372V19.9366C6.59534 19.7027 6.74139 19.4985 6.94563 19.3821V16.4907L6.30324 16.2865C5.54331 16.0241 5.54331 14.9139 6.33177 14.6799L6.33195 14.68Z" fill="currentColor"/>
</svg>


