<svg width="38" height="38" viewBox="0 0 38 38" fill="none" xmlns="http://www.w3.org/2000/svg">
<path fill-rule="evenodd" clip-rule="evenodd" d="M29.3751 13.3895C29.8662 13.8806 30.1423 14.5465 30.1428 15.2409V25.7171C30.1423 26.1962 30.0105 26.666 29.7619 27.0755C29.5132 27.485 29.1572 27.8185 28.7323 28.04C28.6551 28.0802 28.5905 28.1408 28.5453 28.2151C28.5001 28.2895 28.4762 28.3749 28.4761 28.4619V29.5266C28.4761 29.7792 28.3758 30.0215 28.1972 30.2001C28.0186 30.3787 27.7763 30.479 27.5238 30.479C27.2712 30.479 27.0289 30.3787 26.8503 30.2001C26.6717 30.0215 26.5714 29.7792 26.5714 29.5266V28.8123C26.5714 28.6861 26.5212 28.5649 26.4319 28.4756C26.3426 28.3863 26.2215 28.3362 26.0952 28.3362H12.7619C12.6356 28.3362 12.5144 28.3863 12.4251 28.4756C12.3358 28.5649 12.2857 28.6861 12.2857 28.8123V29.5266C12.2857 29.7792 12.1853 30.0215 12.0067 30.2001C11.8281 30.3787 11.5859 30.479 11.3333 30.479C11.0807 30.479 10.8385 30.3787 10.6598 30.2001C10.4812 30.0215 10.3809 29.7792 10.3809 29.5266V28.4619C10.3808 28.3749 10.3569 28.2895 10.3117 28.2151C10.2666 28.1408 10.2019 28.0802 10.1247 28.04C9.69989 27.8185 9.34383 27.485 9.09518 27.0755C8.84652 26.666 8.71478 26.1962 8.71423 25.7171V15.2409C8.71474 14.5465 8.99083 13.8806 9.48189 13.3895C9.97295 12.8985 10.6388 12.6224 11.3333 12.6219H16.6485C16.6975 12.622 16.7454 12.6071 16.7856 12.5791C16.8257 12.551 16.8563 12.5113 16.8731 12.4653C16.8899 12.4192 16.892 12.3691 16.8793 12.3218C16.8665 12.2745 16.8395 12.2323 16.8019 12.2009L13.2942 9.26283C13.1923 9.18001 13.1087 9.07702 13.0485 8.96033C12.9883 8.84364 12.9529 8.71576 12.9445 8.58473C12.9361 8.4537 12.9549 8.32235 12.9997 8.19893C13.0445 8.07551 13.1143 7.96268 13.2048 7.86753C13.2952 7.77238 13.4044 7.69696 13.5254 7.64602C13.6464 7.59508 13.7767 7.56971 13.908 7.5715C14.0392 7.57329 14.1687 7.60222 14.2883 7.65645C14.4079 7.71068 14.515 7.78905 14.6028 7.88664L19.2695 11.8866C19.3128 11.9236 19.3678 11.9439 19.4247 11.9439C19.4816 11.9439 19.5367 11.9236 19.5799 11.8866L24.2466 7.88664C24.3363 7.79688 24.443 7.72596 24.5605 7.67802C24.678 7.63009 24.8039 7.60611 24.9307 7.6075C25.0576 7.60889 25.1829 7.63562 25.2993 7.68612C25.4157 7.73662 25.5209 7.80986 25.6086 7.90156C25.6963 7.99326 25.7648 8.10155 25.81 8.22009C25.8553 8.33863 25.8764 8.46501 25.8721 8.59182C25.8679 8.71864 25.8383 8.84332 25.7852 8.95855C25.7321 9.07377 25.6565 9.17723 25.5628 9.26283L22.0552 12.2009C22.0176 12.2323 21.9905 12.2745 21.9778 12.3218C21.965 12.3691 21.9672 12.4192 21.984 12.4653C22.0007 12.5113 22.0313 12.551 22.0715 12.5791C22.1117 12.6071 22.1595 12.622 22.2085 12.6219H27.5238C28.2182 12.6224 28.8841 12.8985 29.3751 13.3895ZM25.732 16.0803C25.1967 15.5449 24.4713 15.2432 23.7142 15.2409H15.1428C14.3857 15.2432 13.6603 15.5449 13.125 16.0803C12.5897 16.6156 12.2879 17.341 12.2857 18.0981V22.86C12.2879 23.617 12.5897 24.3424 13.125 24.8778C13.6603 25.4131 14.3857 25.7149 15.1428 25.7171H23.7142C24.4713 25.7149 25.1967 25.4131 25.732 24.8778C26.2674 24.3424 26.5691 23.617 26.5714 22.86V18.0981C26.5691 17.341 26.2674 16.6156 25.732 16.0803ZM17.7391 17.5895L22.0819 19.1685C22.351 19.2663 22.5835 19.4445 22.7477 19.6789C22.912 19.9134 23.0001 20.1927 23.0001 20.479C23.0001 20.7652 22.912 21.0446 22.7477 21.279C22.5835 21.5135 22.351 21.6917 22.0819 21.7895L17.7391 23.3685C17.5808 23.4261 17.411 23.4446 17.244 23.4226C17.0771 23.4006 16.9178 23.3386 16.7799 23.242C16.642 23.1454 16.5294 23.0169 16.4516 22.8675C16.3739 22.7181 16.3333 22.5522 16.3334 22.3837V18.5742C16.3333 18.4058 16.3739 18.2399 16.4516 18.0904C16.5294 17.941 16.642 17.8126 16.7799 17.7159C16.9178 17.6193 17.0771 17.5574 17.244 17.5353C17.411 17.5133 17.5808 17.5319 17.7391 17.5895Z" fill="currentColor"/>
</svg>
