<svg width="38" height="38" viewBox="0 0 38 38" fill="none" xmlns="http://www.w3.org/2000/svg">
<path d="M14.4973 22.2233C14.4062 21.6974 13.9258 21.3545 13.3999 21.4233C13.1258 21.4688 12.9196 21.7429 12.966 22.018L14.1089 29.0804C14.1544 29.3545 14.4285 29.5607 14.7035 29.5143C15.2294 29.4232 15.5723 28.9428 15.5035 28.4169L14.4973 22.2233Z" fill="currentColor"/>
<path d="M24.6233 21.4232C24.0974 21.3322 23.618 21.6973 23.526 22.2232L22.5207 28.418C22.4296 28.9439 22.7948 29.4233 23.3207 29.5153C23.5948 29.5609 23.8689 29.3778 23.9153 29.0814L25.0582 22.019C25.1028 21.7431 24.9198 21.469 24.6234 21.4235L24.6233 21.4232Z" fill="currentColor"/>
<path d="M29.7884 19.5026C29.7884 13.2402 24.9429 8.14282 19 8.14282C13.0572 8.14282 8.21167 13.2402 8.21167 19.5026C8.21167 20.9196 8.46346 22.2909 8.92061 23.5714C8.48669 24.3259 8.28042 25.2169 8.44024 26.1312L8.50899 26.6115C8.85185 28.7142 10.818 30.1311 12.9206 29.8115C13.2867 29.7428 13.5153 29.4231 13.4689 29.0571L12.3715 22.2687C12.3028 21.9026 11.9831 21.6741 11.6171 21.7205C11.1599 21.7893 10.7483 21.9491 10.3831 22.1544C10.1546 21.3089 10.0403 20.4169 10.0403 19.5025C10.0403 16.8052 11.1144 14.3597 12.8065 12.6221C13.035 12.8274 13.3324 12.9417 13.6297 12.9417C13.9493 12.9417 14.2466 12.8274 14.4752 12.5989C15.6868 11.3873 17.2869 10.8846 18.9324 10.8846C20.4868 10.8846 21.9947 11.3185 23.1842 12.3935C23.6646 12.8274 24.3958 12.8051 24.853 12.348C26.7271 14.0855 27.8932 16.6454 27.8932 19.5025C27.8932 20.3936 27.7789 21.2855 27.5504 22.1311C27.1843 21.9257 26.7736 21.7882 26.3387 21.7195C25.9727 21.6507 25.6298 21.9025 25.5843 22.2677L24.487 29.056C24.4182 29.4221 24.67 29.7649 25.0352 29.8105C27.1378 30.1533 29.104 28.7131 29.4468 26.6105L29.5156 26.1301C29.6754 25.1926 29.47 24.2783 29.0129 23.5249C29.5379 22.2454 29.7888 20.8972 29.7888 19.5025L29.7884 19.5026Z" fill="currentColor"/>
</svg>
