<svg width="38" height="38" viewBox="0 0 38 38" fill="none" xmlns="http://www.w3.org/2000/svg">
<path d="M31.48 9.04565V22.7142C31.48 24.3485 30.1428 25.6857 28.5086 25.6857H21.6743V27.4685H25.24V28.9542H12.76V27.4685H16.3257V25.6857H9.49141C7.85713 25.6857 6.51998 24.3485 6.51998 22.7142V9.04565H31.48ZM8.59998 11.1257V21.5257H29.4V11.1257H8.59998Z" fill="currentColor"/>
<path d="M16.9202 14.3942C16.9202 15.5433 17.8511 16.4742 19.0002 16.4742C20.1493 16.4742 21.0802 15.5433 21.0802 14.3942C21.0802 13.2451 20.1493 12.3142 19.0002 12.3142C17.8511 12.3142 16.9202 13.2451 16.9202 14.3942Z" fill="currentColor"/>
<path d="M14.8464 18.6469C14.8998 17.7741 16.2114 17.0684 17.8121 17.0684H20.1892C21.7898 17.0684 23.1014 17.7741 23.1548 18.6469H23.1606V20.3369H14.8406V18.6469H14.8464Z" fill="currentColor"/>
</svg>
