<svg width="38" height="38" viewBox="0 0 38 38" fill="none" xmlns="http://www.w3.org/2000/svg">
<path d="M19 7.36365H11.7273C11.3254 7.36365 11 7.68909 11 8.09092V29.9091C11 30.1018 11.0764 30.2873 11.2127 30.4236C11.3491 30.56 11.5345 30.6364 11.7273 30.6364H19C19.1927 30.6364 19.3782 30.56 19.5145 30.4236C19.6509 30.2873 19.7272 30.1018 19.7272 29.9091V8.09092C19.7272 7.89819 19.6509 7.71274 19.5145 7.57638C19.3782 7.44002 19.1927 7.36366 19 7.36366L19 7.36365ZM18.2727 29.1818H12.4545V27H16.0909V25.5455H12.4545V23.3636H14.6364V21.9091H12.4545V19.7273H16.0909V18.2727H12.4545V16.0909H14.6364V14.6364H12.4545V12.4546H16.0909V11H12.4545V8.81819H18.2727V29.1818Z" fill="currentColor"/>
<path d="M26.8987 11.3564L24.7169 7.71999C24.5851 7.50272 24.3497 7.37 24.0951 7.37C23.8405 7.37 23.6051 7.50272 23.4733 7.71999L21.2915 11.3564C21.2224 11.4682 21.1842 11.5963 21.1824 11.7273V29.9091C21.1824 30.1018 21.2587 30.2873 21.3951 30.4236C21.5315 30.56 21.7169 30.6364 21.9096 30.6364H26.2733C26.466 30.6364 26.6515 30.56 26.7878 30.4236C26.9242 30.2873 27.0005 30.1018 27.0005 29.9091V11.7273C27.0005 11.5964 26.9651 11.4682 26.8987 11.3564H26.8987ZM25.546 26.2728H22.6369V11.931L24.0915 9.5092L25.546 11.931V26.2728Z" fill="currentColor"/>
</svg>
