<svg width="189" height="34" viewBox="0 0 189 34" fill="none" xmlns="http://www.w3.org/2000/svg">
<path d="M43.928 12.784C43.928 14.608 43.832 20.008 43.76 20.512C43.712 20.896 43.448 21.088 42.992 21.088H41.744C41.624 21.088 41.552 21.136 41.552 21.232V21.856C41.552 22.024 41.6 22.072 41.72 22.072C42.056 22.072 43.016 22 45.104 22C46.424 22 49.256 22.072 49.64 22.072C51.152 22.072 55.256 22.048 57.584 19.528C59.168 17.8 59.96 15.976 59.96 13.216C59.96 10.432 58.856 8.44 57.272 7.12C54.992 5.224 52.4 4.936 49.136 4.936C48.584 4.936 46.184 5.008 45.56 5.008C43.16 5.008 42.104 4.936 41.792 4.936C41.696 4.936 41.624 4.96 41.624 5.056V5.752C41.624 5.896 41.696 5.92 41.816 5.92H43.016C43.424 5.92 43.736 6.016 43.808 6.592C43.856 6.952 43.928 10.36 43.928 10.984V12.784ZM47.528 11.608C47.528 11.224 47.528 8.08 47.552 7.072C47.576 6.592 47.672 6.208 48.032 6.04C48.344 5.872 48.704 5.848 49.376 5.848C50.768 5.848 52.88 6.616 54.152 8.032C55.28 9.28 56.096 11.296 56.096 13.264C56.096 15.496 55.352 17.464 54.392 18.736C53.144 20.392 51.296 21.088 49.904 21.088C49.088 21.088 48.272 20.944 47.984 20.512C47.672 20.056 47.576 19.672 47.576 19.192C47.552 17.704 47.528 13.624 47.528 13.312V11.608ZM70.3957 16.024C70.9237 16.024 71.1397 16 71.1397 15.688C71.1397 15.304 70.9237 11.584 67.0357 11.584C65.1877 11.584 63.7237 12.28 62.8597 13.552C61.7797 15.136 61.7797 16.408 61.7797 17.08C61.8037 18.952 62.2117 19.888 63.4357 21.208C64.2277 22.072 65.4997 22.336 67.0357 22.336C69.2917 22.336 70.8517 20.68 71.2837 19.792C71.4997 19.384 71.4277 19.264 71.3317 19.216L70.9237 19C70.8277 18.928 70.7317 18.952 70.6837 19.072C70.2037 19.84 69.2437 20.392 68.0677 20.392C66.3157 20.392 64.8997 19.168 64.8997 16.672V16.024H70.3957ZM64.9237 15.112C65.0917 13.432 65.6917 12.544 66.8197 12.544C67.5637 12.544 67.9957 13.576 67.9957 14.632C67.9957 14.992 67.7557 15.112 67.2277 15.112H64.9237ZM79.6398 12.544C79.6158 12.376 79.5678 12.256 79.2078 12.088C78.7758 11.872 77.9838 11.584 76.6878 11.584C75.6798 11.584 75.0078 11.752 74.0478 12.448C73.1358 13.12 72.7998 14.056 72.7998 15.184C72.7998 16.912 74.0238 17.728 75.7278 18.232C77.2878 18.712 77.9838 19.024 77.9838 19.984C77.9838 20.824 77.4558 21.448 76.5678 21.448C75.4638 21.448 74.9118 20.848 74.4798 20.224L73.5198 18.808C73.4718 18.712 73.4238 18.688 73.3518 18.712L72.9198 18.832C72.8238 18.856 72.7518 18.904 72.7518 19.024L73.0638 21.328C73.0878 21.472 73.1118 21.568 73.2078 21.64C73.4958 21.856 74.6718 22.336 76.0158 22.336C78.6318 22.336 80.3118 20.8 80.3118 18.664C80.3118 17.824 80.1678 17.248 79.5438 16.624C78.8238 15.856 78.2478 15.688 77.0718 15.376C75.2958 14.896 75.0078 14.656 74.9598 13.816C74.9598 13 75.6558 12.52 76.3758 12.52C77.0958 12.52 77.5518 12.904 77.8638 13.216L79.2078 14.656C79.3038 14.752 79.3758 14.776 79.4478 14.728L79.8798 14.536C79.9758 14.488 79.9998 14.44 79.9758 14.32L79.6398 12.544ZM86.0405 7.96C86.0405 7.264 85.4405 6.448 84.2645 6.448C83.2085 6.448 82.3925 7.24 82.3925 8.032C82.3925 8.992 83.1365 9.784 84.1445 9.76C85.4885 9.712 86.0405 8.752 86.0405 7.96ZM87.6485 21.832V21.376C87.6485 21.232 87.6005 21.16 87.4085 21.16H86.5445C86.2805 21.16 86.1605 20.992 86.1125 20.536C86.0885 20.272 86.0885 19.408 86.0885 18.472V15.904C86.0885 13.792 86.0885 12.28 86.1365 11.872C86.1605 11.704 86.0885 11.584 85.8965 11.584C85.7285 11.584 85.5125 11.632 85.2485 11.728L81.6725 12.88C81.4565 12.952 81.4085 13 81.4085 13.072V13.336C81.4085 13.48 81.4325 13.576 81.6965 13.672C82.7045 14.032 82.8485 14.512 82.8485 15.184L82.8965 18.544C82.8965 19.216 82.8965 19.96 82.8485 20.68C82.8245 21.064 82.6565 21.16 82.3925 21.16H81.5045C81.3365 21.16 81.2645 21.208 81.2645 21.352V21.832C81.2645 22.024 81.3365 22.072 81.4565 22.072C81.7205 22.072 82.6565 22 84.0485 22C86.1365 22 87.2405 22.072 87.4325 22.072C87.6005 22.072 87.6485 22 87.6485 21.832ZM92.9774 28.528C95.4014 28.528 97.2254 27.76 98.1134 27.04C99.0494 26.248 99.5054 25.384 99.5054 24.376C99.5054 23.488 99.1934 22.648 98.3294 21.952C97.1534 21.04 95.9294 20.944 94.2974 20.992C91.7054 21.064 91.0094 20.992 91.0094 20.152C91.0094 19.672 91.5854 19.24 91.8974 19.048C92.4974 19.12 92.8334 19.12 93.3134 19.12C94.2734 19.12 95.6414 18.832 96.5534 17.968C97.3694 17.176 97.6334 16.288 97.6334 15.376C97.6334 14.512 97.4414 13.984 97.3454 13.816C97.4654 13.696 97.6814 13.6 97.8014 13.6C98.0654 13.6 98.3534 13.768 98.4734 13.96C98.6174 14.2 98.8094 14.368 99.2174 14.368C99.7694 14.368 100.273 13.888 100.273 13.336C100.273 12.568 99.8174 12.088 98.9534 12.088C98.2814 12.088 97.3934 12.472 96.8414 12.928C96.6254 12.688 95.5694 11.584 93.4574 11.584C90.0494 11.584 88.8014 13.528 88.8014 15.088C88.8014 17.128 89.8814 18.136 90.9134 18.736V18.808C90.1214 19.192 88.7774 19.96 88.7774 21.352C88.7774 22.192 89.3294 22.936 90.4334 23.272V23.392C89.3054 23.848 87.9614 24.712 87.9614 25.912C87.9614 26.656 88.2494 27.28 89.1374 27.784C90.0734 28.336 91.8254 28.528 92.9774 28.528ZM93.3374 12.496C94.0094 12.496 94.2974 12.76 94.5134 13.168C94.6334 13.384 94.7294 13.888 94.7294 14.776C94.7294 16.624 94.3694 18.232 93.3134 18.232C92.8334 18.232 92.4734 18.088 92.2094 17.752C91.8974 17.392 91.6814 16.624 91.6814 15.928C91.6814 14.848 91.8254 13.744 92.1614 13.264C92.4974 12.784 92.8094 12.496 93.3374 12.496ZM93.7934 27.592C92.7134 27.592 92.0414 27.448 91.3694 26.968C90.9134 26.632 90.5294 26.032 90.5294 25.336C90.5294 24.616 91.0334 23.872 91.7294 23.704L93.8174 23.608C96.0014 23.512 96.9374 24.232 96.9374 25.552C96.9374 26.752 95.3774 27.592 93.7934 27.592ZM104.965 11.872C104.917 11.704 104.773 11.584 104.629 11.584C104.437 11.584 104.269 11.68 104.077 11.752L101.005 13.144C100.885 13.192 100.789 13.264 100.789 13.384V13.6C100.789 13.696 100.813 13.792 100.957 13.864L101.173 13.96C101.725 14.224 102.133 14.632 102.133 15.352V20.68C102.133 21.088 101.725 21.16 101.461 21.16H101.101C100.909 21.16 100.861 21.232 100.861 21.376V21.856C100.861 22 100.909 22.072 101.029 22.072C101.173 22.072 101.941 22 103.645 22C105.229 22 105.877 22.072 106.045 22.072C106.165 22.072 106.213 22 106.213 21.856V21.4C106.213 21.232 106.165 21.16 105.973 21.16H105.661C105.445 21.16 105.277 20.8 105.277 20.368L105.325 15.448C105.325 14.464 105.517 13.816 105.805 13.6C106.285 13.24 106.597 13.12 107.029 13.12C107.437 13.12 107.773 13.168 108.205 13.552C108.709 14.008 108.781 14.632 108.781 15.544V18.112C108.781 19.216 108.733 19.984 108.637 20.608C108.589 21.04 108.373 21.16 108.205 21.16H107.941C107.701 21.16 107.629 21.208 107.629 21.376V21.808C107.629 22 107.677 22.072 107.821 22.072C107.989 22.072 108.757 22 110.341 22C112.261 22 113.005 22.072 113.173 22.072C113.317 22.072 113.365 21.976 113.365 21.808V21.376C113.365 21.232 113.317 21.16 113.101 21.16H112.453C112.237 21.16 111.853 21.04 111.877 20.32C111.925 19.48 111.973 18.352 111.973 17.536V14.992C111.973 13.792 111.901 13.192 110.893 12.256C110.269 11.68 109.357 11.584 108.421 11.584C107.629 11.584 107.101 11.752 106.573 12.04C106.117 12.28 105.685 12.592 105.421 12.904H105.229L104.965 11.872ZM122.975 16.024C123.503 16.024 123.719 16 123.719 15.688C123.719 15.304 123.503 11.584 119.615 11.584C117.767 11.584 116.303 12.28 115.439 13.552C114.359 15.136 114.359 16.408 114.359 17.08C114.383 18.952 114.791 19.888 116.015 21.208C116.807 22.072 118.079 22.336 119.615 22.336C121.871 22.336 123.431 20.68 123.863 19.792C124.079 19.384 124.007 19.264 123.911 19.216L123.503 19C123.407 18.928 123.311 18.952 123.263 19.072C122.783 19.84 121.823 20.392 120.647 20.392C118.895 20.392 117.479 19.168 117.479 16.672V16.024H122.975ZM117.503 15.112C117.671 13.432 118.271 12.544 119.399 12.544C120.143 12.544 120.575 13.576 120.575 14.632C120.575 14.992 120.335 15.112 119.807 15.112H117.503ZM129.412 15.664C129.412 15.352 129.508 14.896 129.82 14.248C129.964 13.936 130.204 13.816 130.444 13.816C130.636 13.816 130.852 13.864 131.044 13.984C131.26 14.128 131.572 14.2 131.908 14.2C132.7 14.2 133.444 13.48 133.444 12.832C133.444 11.992 132.892 11.44 132.172 11.44C131.116 11.44 130.06 12.16 129.316 13.744H129.148L128.932 11.872C128.908 11.728 128.812 11.584 128.644 11.584C128.5 11.584 128.404 11.632 128.26 11.68L124.9 13.144C124.756 13.192 124.708 13.24 124.708 13.336V13.552C124.708 13.648 124.756 13.696 124.9 13.768L125.308 14.008C126.028 14.416 126.268 14.848 126.268 15.88V17.872C126.268 19.072 126.268 19.912 126.22 20.584C126.172 21.016 125.956 21.16 125.596 21.16H124.9C124.684 21.16 124.636 21.208 124.636 21.376V21.832C124.636 22.024 124.684 22.072 124.78 22.072C124.924 22.072 125.932 22 127.78 22C129.94 22 131.044 22.072 131.188 22.072C131.284 22.072 131.308 22 131.308 21.856V21.376C131.308 21.232 131.284 21.16 131.14 21.16H130.156C129.652 21.16 129.412 20.92 129.412 20.176V15.664ZM140.889 12.544C140.865 12.376 140.817 12.256 140.457 12.088C140.025 11.872 139.233 11.584 137.937 11.584C136.929 11.584 136.257 11.752 135.297 12.448C134.385 13.12 134.049 14.056 134.049 15.184C134.049 16.912 135.273 17.728 136.977 18.232C138.537 18.712 139.233 19.024 139.233 19.984C139.233 20.824 138.705 21.448 137.817 21.448C136.713 21.448 136.161 20.848 135.729 20.224L134.769 18.808C134.721 18.712 134.673 18.688 134.601 18.712L134.169 18.832C134.073 18.856 134.001 18.904 134.001 19.024L134.313 21.328C134.337 21.472 134.361 21.568 134.457 21.64C134.745 21.856 135.921 22.336 137.265 22.336C139.881 22.336 141.561 20.8 141.561 18.664C141.561 17.824 141.417 17.248 140.793 16.624C140.073 15.856 139.497 15.688 138.321 15.376C136.545 14.896 136.257 14.656 136.209 13.816C136.209 13 136.905 12.52 137.625 12.52C138.345 12.52 138.801 12.904 139.113 13.216L140.457 14.656C140.553 14.752 140.625 14.776 140.697 14.728L141.129 14.536C141.225 14.488 141.249 14.44 141.225 14.32L140.889 12.544ZM145.057 13.576C145.057 14.2 145.009 18.856 144.985 19.984C144.985 20.512 144.913 21.088 144.313 21.088H143.209C142.993 21.088 142.969 21.136 142.969 21.304V21.808C142.969 22 142.993 22.072 143.209 22.072C143.689 22.072 144.409 22 146.953 22C148.969 22 149.809 22.072 150.241 22.072C150.433 22.072 150.457 22 150.457 21.856V21.28C150.457 21.136 150.433 21.088 150.241 21.088H149.569C149.041 21.088 148.801 20.848 148.777 20.272C148.705 18.64 148.609 14.944 148.609 14.344V13.984C148.609 13.768 148.681 13.696 148.945 13.696H156.121C156.409 13.696 156.649 13.72 156.649 13.984V14.272C156.649 15.04 156.601 18.904 156.553 20.032C156.529 20.632 156.457 21.088 155.881 21.088H154.825C154.585 21.088 154.561 21.16 154.561 21.304V21.832C154.561 21.952 154.609 22.072 154.873 22.072C155.425 22.072 156.193 22 158.641 22C160.801 22 161.617 22.072 162.001 22.072C162.241 22.072 162.265 21.952 162.265 21.832V21.304C162.265 21.16 162.241 21.088 162.049 21.088H161.233C160.513 21.088 160.273 20.752 160.273 19.888C160.249 18.568 160.201 14.008 160.201 13.24V12.424C160.201 11.536 160.249 7.48 160.249 7.144C160.249 6.328 160.321 5.92 161.017 5.92H161.737C162.025 5.92 162.049 5.824 162.049 5.656V5.2C162.049 5.008 162.025 4.936 161.737 4.936C161.425 4.936 160.417 5.008 158.425 5.008C156.385 5.008 155.353 4.936 154.921 4.936C154.729 4.936 154.705 5.008 154.705 5.152V5.68C154.705 5.848 154.729 5.92 154.945 5.92H155.929C156.361 5.92 156.457 6.376 156.481 7.144C156.481 7.384 156.649 10.72 156.649 12.088V12.328C156.649 12.592 156.529 12.64 156.169 12.64H148.993C148.681 12.64 148.609 12.568 148.609 12.448V12.088C148.609 10.744 148.729 7.576 148.753 7.24C148.825 6.328 148.945 5.92 149.809 5.92H150.385C150.649 5.92 150.673 5.848 150.673 5.704V5.2C150.673 5.008 150.649 4.936 150.385 4.936C149.977 4.936 149.113 5.008 146.761 5.008C144.361 5.008 143.593 4.936 143.185 4.936C142.945 4.936 142.921 5.08 142.921 5.224V5.68C142.921 5.824 142.945 5.92 143.209 5.92H144.193C144.841 5.92 145.009 6.256 145.009 7.48C145.009 7.816 145.057 11.056 145.057 12.544V13.576ZM175.733 21.4C175.829 21.376 175.877 21.328 175.853 21.208L175.781 20.752C175.757 20.656 175.685 20.608 175.493 20.656C175.205 20.728 174.845 20.728 174.701 20.728C174.605 20.728 174.341 20.632 174.269 19.888C174.221 19.456 174.221 18.28 174.221 17.128V15.352C174.221 12.928 174.341 12.304 174.365 12.088C174.389 11.968 174.293 11.848 174.149 11.848C174.077 11.848 173.981 11.872 173.861 11.872C173.741 11.896 173.621 11.92 173.453 11.92H169.877C169.637 11.92 169.589 11.944 169.589 12.136V12.592C169.589 12.712 169.709 12.736 169.997 12.76C170.597 12.808 171.029 13 171.029 13.6L171.053 19.24C171.053 19.48 170.885 19.864 170.669 20.104C170.309 20.56 169.781 20.872 169.373 20.872C168.941 20.872 168.557 20.92 168.197 20.368C167.597 19.432 167.741 17.632 167.741 16.672V15.376C167.741 13.48 167.813 12.352 167.837 12.136C167.861 11.968 167.741 11.848 167.573 11.848C167.501 11.848 167.405 11.872 167.309 11.872C167.213 11.896 167.117 11.92 166.973 11.92H163.469C163.253 11.92 163.205 11.968 163.205 12.112V12.592C163.205 12.712 163.325 12.688 163.733 12.76C164.021 12.808 164.525 13.024 164.549 13.6C164.573 14.128 164.573 15.088 164.573 16L164.549 17.056C164.549 19.12 164.453 19.888 165.461 21.232C166.301 22.336 167.021 22.336 167.981 22.336C169.277 22.336 170.669 21.592 171.149 20.752H171.293L171.437 22.048C171.461 22.216 171.605 22.336 171.845 22.336C172.061 22.336 172.229 22.288 172.373 22.24L175.733 21.4ZM179.042 21.712C179.834 22.048 180.746 22.336 182.33 22.336C185.426 22.336 187.826 19.24 187.826 16.72C187.826 15.16 187.538 14.272 187.13 13.624C186.506 12.616 185.282 11.584 183.722 11.584C182.522 11.584 181.37 11.872 180.506 12.736L180.554 10C180.578 7.648 180.746 4.912 180.746 4.72C180.746 4.48 180.698 4.312 180.458 4.312C180.218 4.312 180.026 4.456 179.618 4.672C178.682 5.104 177.17 5.704 175.97 6.04C175.754 6.112 175.706 6.208 175.706 6.28V6.568C175.706 6.64 175.754 6.688 176.018 6.76L176.354 6.856C177.098 7.072 177.41 7.36 177.41 8.968V17.92C177.41 19.72 177.41 21.712 177.338 22.048C177.314 22.168 177.338 22.216 177.434 22.24L177.77 22.36C177.866 22.384 177.938 22.384 178.058 22.312L179.042 21.712ZM180.53 13.744C181.01 13.432 181.586 13.288 182.018 13.288C183.266 13.288 184.586 14.344 184.586 17.512C184.586 18.472 184.706 19.072 184.202 20.176C183.746 21.184 182.906 21.424 182.21 21.424C181.562 21.424 181.154 21.016 180.818 20.392C180.506 19.768 180.53 18.88 180.53 16.888V13.744Z" fill="currentColor"/>
<path d="M28 16.6233C28 13.606 26.8014 10.7123 24.6679 8.57875C22.5343 6.4452 19.6406 5.24658 16.6233 5.24658V28C19.6406 28 22.5343 26.8014 24.6679 24.6679C26.8014 22.5343 28 19.6406 28 16.6233Z" fill="#3769B2"/>
<path d="M5.24652 16.6233C5.24652 13.606 6.44514 10.7122 8.57869 8.57869C10.7122 6.44514 13.606 5.24652 16.6233 5.24652V0C12.2145 6.56957e-08 7.9863 1.75137 4.86884 4.86884C1.75137 7.9863 0 12.2145 0 16.6233C0 21.032 1.75137 25.2602 4.86884 28.3777C7.9863 31.4951 12.2145 33.2465 16.6233 33.2465V28C13.606 28 10.7122 26.8014 8.57869 24.6678C6.44514 22.5343 5.24652 19.6406 5.24652 16.6233Z" fill="#588DD9"/>
<path d="M5.24646 16.6233C5.24646 19.6406 6.44508 22.5343 8.57863 24.6679C10.7122 26.8014 13.6059 28 16.6232 28V5.24658C13.6059 5.24658 10.7122 6.4452 8.57863 8.57875C6.44508 10.7123 5.24646 13.606 5.24646 16.6233Z" fill="#0C3573"/>
</svg>
