<svg width="61" height="40" viewBox="0 0 61 40" fill="none" xmlns="http://www.w3.org/2000/svg">
<rect width="61" height="40" rx="20" fill="#CFDAE6"/>
<circle cx="20" cy="20" r="16" fill="white"/>
<path d="M11.9815 21.1438L12.663 21.1438C13.2049 21.1438 13.6446 20.7041 13.6446 20.1622C13.6446 19.6194 13.2049 19.1807 12.663 19.1807L11.9815 19.1807C11.4396 19.1807 10.9999 19.6203 10.9999 20.1622C10.999 20.7041 11.4387 21.1438 11.9815 21.1438V21.1438Z" fill="#072B59"/>
<path d="M27.6611 21.1438L28.3427 21.1438C28.8845 21.1438 29.3242 20.7041 29.3242 20.1622C29.3242 19.6194 28.8845 19.1807 28.3427 19.1807L27.6611 19.1807C27.1192 19.1807 26.6796 19.6203 26.6796 20.1622C26.6796 20.7041 27.1192 21.1438 27.6611 21.1438Z" fill="#072B59"/>
<path d="M20.162 13.6447C20.7039 13.6447 21.1436 13.205 21.1436 12.6631L21.1436 11.9816C21.1436 11.4387 20.7039 11 20.162 11C19.6202 11 19.1805 11.4397 19.1805 11.9816L19.1805 12.6631C19.1805 13.205 19.6202 13.6447 20.162 13.6447Z" fill="#072B59"/>
<path d="M19.1806 27.661L19.1806 28.3435C19.1806 28.8854 19.6203 29.3251 20.1622 29.3251C20.704 29.3251 21.1437 28.8854 21.1437 28.3435L21.1437 27.661C21.1437 27.1182 20.704 26.6794 20.1622 26.6794C19.6203 26.6794 19.1806 27.1182 19.1806 27.661Z" fill="#072B59"/>
<path d="M13.6865 15.0752L14.1637 15.5524C14.3494 15.738 14.5959 15.8392 14.8575 15.8392L14.8715 15.8392C15.4134 15.8392 15.8531 15.3996 15.8531 14.8577C15.8531 14.5689 15.7237 14.3158 15.525 14.1368L15.075 13.6868C14.6915 13.3033 14.07 13.3033 13.6865 13.6868C13.3031 14.0702 13.3031 14.6918 13.6865 15.0752L13.6865 15.0752Z" fill="#072B59"/>
<path d="M26.1606 24.7717C25.7772 24.3883 25.1557 24.3883 24.7722 24.7717C24.3888 25.1552 24.3888 25.7767 24.7722 26.1602L25.2494 26.6374C25.6328 27.0208 26.2544 27.0208 26.6378 26.6374C27.0213 26.2539 27.0213 25.6324 26.6378 25.2489L26.1606 24.7717Z" fill="#072B59"/>
<path d="M25.4523 15.839L25.4664 15.839C25.7289 15.839 25.9745 15.7368 26.1601 15.5522L26.6373 15.075C27.0208 14.6915 27.0208 14.07 26.6373 13.6865C26.2539 13.3031 25.6323 13.3031 25.2489 13.6865L24.7998 14.1356C24.6011 14.3146 24.4708 14.5687 24.4708 14.8574C24.4708 15.3993 24.9104 15.839 25.4523 15.839L25.4523 15.839Z" fill="#072B59"/>
<path d="M14.1635 24.7717L13.6863 25.2489C13.3029 25.6324 13.3029 26.2539 13.6863 26.6374C14.0698 27.0208 14.6913 27.0208 15.0748 26.6374L15.552 26.1602C15.9354 25.7767 15.9354 25.1552 15.552 24.7717C15.1685 24.3883 14.547 24.3883 14.1635 24.7717Z" fill="#072B59"/>
<path d="M20.161 25.7177C23.2342 25.7177 25.7232 23.2277 25.7242 20.1545C25.7232 17.0813 23.2342 14.5923 20.161 14.5913C17.0878 14.5922 14.5987 17.0823 14.5978 20.1545C14.5987 23.2277 17.0887 25.7177 20.161 25.7177Z" fill="#072B59"/>
</svg>
